<svg width="300" height="51" viewBox="0 0 300 51" fill="none" xmlns="http://www.w3.org/2000/svg">
<path d="M0 10.5C0 4.97715 4.47715 0.5 10 0.5H290C295.523 0.5 300 4.97715 300 10.5V40.5C300 46.0228 295.523 50.5 290 50.5H10C4.47716 50.5 0 46.0228 0 40.5V10.5Z" fill="#F2F2F2"/>
<path d="M1.5 10.5C1.5 5.80558 5.30558 2 10 2H290C294.694 2 298.5 5.80558 298.5 10.5V40.5C298.5 45.1944 294.694 49 290 49H10C5.30559 49 1.5 45.1944 1.5 40.5V10.5Z" stroke="#5790FF" stroke-opacity="0.6" stroke-width="3"/>
</svg>
