<svg id="SvgjsSvg1001" width="288" height="288" xmlns="http://www.w3.org/2000/svg" version="1.1" xmlns:xlink="http://www.w3.org/1999/xlink" xmlns:svgjs="http://svgjs.com/svgjs"><defs id="SvgjsDefs1002"></defs><g id="SvgjsG1008"><svg xmlns="http://www.w3.org/2000/svg" fill-rule="evenodd" clip-rule="evenodd" image-rendering="optimizeQuality" shape-rendering="geometricPrecision" text-rendering="geometricPrecision" viewBox="0 0 466 511.963" width="288" height="288"><path d="M389.936 104.049c-14.04 10.426-28.934 21.173-36.759 25.606-19.559 11.169-22.837 38.57-14.408 39.74 3.337.464 14.431-5.326 27.253-12.986 29.56-17.66 74.927-47.317 93.526-76.33 4.229-6.595 6.799-13.084 6.414-18.887-.293-4.445-2.787-7.708-8.265-9.366-39.594-15.213-74.422-31.852-102.828-50.411-2.42-1.346-4.619-1.695-6.63-1.203-6.713 1.64-12.586 15.647-14.457 21.588-2.694 8.553-1.685 13.59 5.18 18.338 13.515 9.346 28.999 16.229 44.546 22.911-111.908 7.207-204.019 54.796-269.926 126.745C40.667 269.394-.088 378.772 0 496.158c.005 6.723.578 10.497 4.081 13.313 3.164 2.542 7.142 2.712 14.118 2.348 10.815-.563 16.829-2.623 20.809-9.195 3.402-5.62 4.254-13.817 5.08-27.422.244-4.013.618-8.023.884-12.037 6.551-98.572 45.367-189.537 110.101-255.329 58.576-59.533 138.436-98.474 234.863-103.787z" fill="#fdfdfd" class="color000 svgShape"></path></svg></g></svg>